{
  "asset": {
    "version": "2.0",
    "generator": "THREE.GLTFExporter"
  },
  "scenes": [
    {
      "nodes": [
        0,
        1,
        2,
        3,
        4,
        5,
        6,
        7,
        8,
        9,
        10,
        11,
        12,
        13,
        14,
        15,
        16,
        17,
        18,
        19,
        20,
        21
      ]
    }
  ],
  "scene": 0,
  "nodes": [
    {
      "matrix": [
        1,
        0,
        0,
        0,
        0,
        0.52999894000318,
        -0.8479983040050879,
        0,
        0,
        0.8479983040050879,
        0.52999894000318,
        0,
        0,
        800,
        499.99999999999994,
        1
      ],
      "camera": 0
    },
    {},
    {
      "matrix": [
        1,
        0,
        0,
        0,
        0,
        1,
        0,
        0,
        0,
        0,
        1,
        0,
        0,
        1500,
        200,
        1
      ],
      "extensions": {
        "KHR_lights_punctual": {
          "light": 0
        }
      }
    },
    {
      "mesh": 0
    },
    {
      "mesh": 1
    },
    {
      "mesh": 2
    },
    {
      "matrix": [
        1,
        0,
        0,
        0,
        0,
        1,
        0,
        0,
        0,
        0,
        1,
        0,
        -236.9720443772996,
        363.5427640999839,
        183.04208623593684,
        1
      ],
      "mesh": 3
    },
    {
      "matrix": [
        1,
        0,
        0,
        0,
        0,
        1,
        0,
        0,
        0,
        0,
        1,
        0,
        74.57224180369644,
        115.86924420926263,
        388.2233971209414,
        1
      ],
      "mesh": 4
    },
    {
      "matrix": [
        1,
        0,
        0,
        0,
        0,
        1,
        0,
        0,
        0,
        0,
        1,
        0,
        211.64866517659232,
        91.24940504968646,
        -278.82054223587113,
        1
      ],
      "mesh": 5
    },
    {
      "matrix": [
        1,
        0,
        0,
        0,
        0,
        1,
        0,
        0,
        0,
        0,
        1,
        0,
        349.8722733628732,
        350.53613958669234,
        42.983699543049,
        1
      ],
      "mesh": 6
    },
    {
      "matrix": [
        1,
        0,
        0,
        0,
        0,
        1,
        0,
        0,
        0,
        0,
        1,
        0,
        308.1168862728849,
        428.3183029319294,
        -234.3176553550231,
        1
      ],
      "mesh": 7
    },
    {
      "matrix": [
        1,
        0,
        0,
        0,
        0,
        1,
        0,
        0,
        0,
        0,
        1,
        0,
        182.14664387601886,
        15.568223112337742,
        239.4405739788583,
        1
      ],
      "mesh": 8
    },
    {
      "matrix": [
        1,
        0,
        0,
        0,
        0,
        1,
        0,
        0,
        0,
        0,
        1,
        0,
        -247.75062528630065,
        162.29325440699554,
        122.52680159989461,
        1
      ],
      "mesh": 9
    },
    {
      "matrix": [
        1,
        0,
        0,
        0,
        0,
        1,
        0,
        0,
        0,
        0,
        1,
        0,
        -314.8691992147523,
        562.1795948133037,
        -10.520446478465374,
        1
      ],
      "mesh": 10
    },
    {
      "matrix": [
        1,
        0,
        0,
        0,
        0,
        1,
        0,
        0,
        0,
        0,
        1,
        0,
        336.51861111907726,
        585.7908126321896,
        -327.28145400049834,
        1
      ],
      "mesh": 11
    },
    {
      "matrix": [
        1,
        0,
        0,
        0,
        0,
        1,
        0,
        0,
        0,
        0,
        1,
        0,
        -73.91536539946907,
        494.7819232945596,
        115.71599061087238,
        1
      ],
      "mesh": 12
    },
    {
      "matrix": [
        1,
        0,
        0,
        0,
        0,
        1,
        0,
        0,
        0,
        0,
        1,
        0,
        -362.23113134355447,
        49.04540007937599,
        259.77639128864644,
        1
      ],
      "mesh": 13
    },
    {
      "matrix": [
        1,
        0,
        0,
        0,
        0,
        1,
        0,
        0,
        0,
        0,
        1,
        0,
        248.07738727171238,
        2.8785459815913406,
        -157.3894548791108,
        1
      ],
      "mesh": 14
    },
    {
      "matrix": [
        1,
        0,
        0,
        0,
        0,
        1,
        0,
        0,
        0,
        0,
        1,
        0,
        -430.1189114947914,
        580.9499153791184,
        390.71408332636133,
        1
      ],
      "mesh": 15
    },
    {
      "matrix": [
        1,
        0,
        0,
        0,
        0,
        1,
        0,
        0,
        0,
        0,
        1,
        0,
        -18.57213627468377,
        499.4513521298555,
        192.8148342594809,
        1
      ],
      "mesh": 16
    },
    {
      "matrix": [
        1,
        0,
        0,
        0,
        0,
        1,
        0,
        0,
        0,
        0,
        1,
        0,
        495.78567414585086,
        192.79642324446394,
        275.8379418137297,
        1
      ],
      "mesh": 17
    },
    {
      "matrix": [
        1,
        0,
        0,
        0,
        0,
        1,
        0,
        0,
        0,
        0,
        1,
        0,
        -240.22307247763507,
        300.03299690476547,
        105.12050506694413,
        1
      ],
      "mesh": 18
    }
  ],
  "cameras": [
    {
      "type": "perspective",
      "perspective": {
        "aspectRatio": 1.0473506200676437,
        "yfov": 1.3089969389957472,
        "zfar": 10000,
        "znear": 1
      }
    }
  ],
  "extensions": {
    "KHR_lights_punctual": {
      "lights": [
        {
          "color": [
            1,
            1,
            1
          ],
          "intensity": 1.5,
          "type": "spot",
          "spot": {
            "innerConeAngle": 0.6283185307179586,
            "outerConeAngle": 0.6283185307179586
          }
        }
      ]
    }
  },
  "bufferViews": [
    {
      "buffer": 0,
      "byteOffset": 0,
      "byteLength": 12000,
      "target": 34962,
      "byteStride": 12
    },
    {
      "buffer": 0,
      "byteOffset": 12000,
      "byteLength": 12000,
      "target": 34962,
      "byteStride": 12
    },
    {
      "buffer": 0,
      "byteOffset": 24000,
      "byteLength": 12000,
      "target": 34962,
      "byteStride": 12
    },
    {
      "buffer": 0,
      "byteOffset": 36000,
      "byteLength": 50700,
      "target": 34962,
      "byteStride": 12
    },
    {
      "buffer": 0,
      "byteOffset": 86700,
      "byteLength": 50700,
      "target": 34962,
      "byteStride": 12
    },
    {
      "buffer": 0,
      "byteOffset": 137400,
      "byteLength": 33800,
      "target": 34962,
      "byteStride": 8
    },
    {
      "buffer": 0,
      "byteOffset": 171200,
      "byteLength": 48384,
      "target": 34963
    }
  ],
  "buffers": [
    {
      "byteLength": 219584,
      "uri": "data:application/octet-stream;base64,"
    }
  ],
  "accessors": [
    {
      "bufferView": 0,
      "componentType": 5126,
      "count": 1000,
      "max": [
        498.1407470703125,
        612.3829345703125,
        404.6942443847656
      ],
      "min": [
        -434.51910400390625,
        -43.10733413696289,
        -328.4648742675781
      ],
      "type": "VEC3"
    },
    {
      "bufferView": 1,
      "componentType": 5126,
      "count": 1000,
      "max": [
        496.05816650390625,
        618.411376953125,
        394.74957275390625
      ],
      "min": [
        -431.1756896972656,
        -38.01803207397461,
        -330.1015625
      ],
      "type": "VEC3"
    },
    {
      "bufferView": 2,
      "componentType": 5126,
      "count": 1000,
      "max": [
        495.9934387207031,
        637.8776245117188,
        393.18572998046875
      ],
      "min": [
        -445.9541931152344,
        -37.57077407836914,
        -332.5472412109375
      ],
      "type": "VEC3"
    },
    {
      "bufferView": 3,
      "componentType": 5126,
      "count": 4225,
      "max": [
        5,
        5,
        5
      ],
      "min": [
        -5,
        -5,
        -5
      ],
      "type": "VEC3"
    },
    {
      "bufferView": 4,
      "componentType": 5126,
      "count": 4225,
      "max": [
        1,
        1,
        1
      ],
      "min": [
        -1,
        -1,
        -1
      ],
      "type": "VEC3"
    },
    {
      "bufferView": 5,
      "componentType": 5126,
      "count": 4225,
      "max": [
        1.0078125,
        1
      ],
      "min": [
        -0.0078125,
        0
      ],
      "type": "VEC2"
    },
    {
      "bufferView": 6,
      "componentType": 5123,
      "count": 24192,
      "max": [
        4224
      ],
      "min": [
        0
      ],
      "type": "SCALAR"
    }
  ],
  "materials": [
    {
      "pbrMetallicRoughness": {
        "baseColorFactor": [
          0.2823529411764706,
          0.16862745098039217,
          0.7294117647058823,
          1
        ],
        "metallicFactor": 0.5,
        "roughnessFactor": 0.5
      }
    },
    {
      "pbrMetallicRoughness": {
        "baseColorFactor": [
          0.7137254901960784,
          0.592156862745098,
          0.7803921568627451,
          1
        ],
        "metallicFactor": 0.5,
        "roughnessFactor": 0.5
      }
    },
    {
      "pbrMetallicRoughness": {
        "baseColorFactor": [
          0.3333333333333333,
          0.803921568627451,
          0.5450980392156862,
          1
        ],
        "metallicFactor": 0.5,
        "roughnessFactor": 0.5
      }
    },
    {
      "pbrMetallicRoughness": {
        "baseColorFactor": [
          0.8117647058823529,
          0.03137254901960784,
          0.4470588235294118,
          1
        ],
        "metallicFactor": 0.5,
        "roughnessFactor": 0.5
      }
    },
    {
      "pbrMetallicRoughness": {
        "baseColorFactor": [
          0.8117647058823529,
          0.03137254901960784,
          0.4470588235294118,
          1
        ],
        "metallicFactor": 0.5,
        "roughnessFactor": 0.5
      }
    },
    {
      "pbrMetallicRoughness": {
        "baseColorFactor": [
          0.8117647058823529,
          0.03137254901960784,
          0.4470588235294118,
          1
        ],
        "metallicFactor": 0.5,
        "roughnessFactor": 0.5
      }
    },
    {
      "pbrMetallicRoughness": {
        "baseColorFactor": [
          0.8117647058823529,
          0.03137254901960784,
          0.4470588235294118,
          1
        ],
        "metallicFactor": 0.5,
        "roughnessFactor": 0.5
      }
    },
    {
      "pbrMetallicRoughness": {
        "baseColorFactor": [
          0.8117647058823529,
          0.03137254901960784,
          0.4470588235294118,
          1
        ],
        "metallicFactor": 0.5,
        "roughnessFactor": 0.5
      }
    },
    {
      "pbrMetallicRoughness": {
        "baseColorFactor": [
          0.8117647058823529,
          0.03137254901960784,
          0.4470588235294118,
          1
        ],
        "metallicFactor": 0.5,
        "roughnessFactor": 0.5
      }
    },
    {
      "pbrMetallicRoughness": {
        "baseColorFactor": [
          0.8117647058823529,
          0.03137254901960784,
          0.4470588235294118,
          1
        ],
        "metallicFactor": 0.5,
        "roughnessFactor": 0.5
      }
    },
    {
      "pbrMetallicRoughness": {
        "baseColorFactor": [
          0.8117647058823529,
          0.03137254901960784,
          0.4470588235294118,
          1
        ],
        "metallicFactor": 0.5,
        "roughnessFactor": 0.5
      }
    },
    {
      "pbrMetallicRoughness": {
        "baseColorFactor": [
          0.8117647058823529,
          0.03137254901960784,
          0.4470588235294118,
          1
        ],
        "metallicFactor": 0.5,
        "roughnessFactor": 0.5
      }
    },
    {
      "pbrMetallicRoughness": {
        "baseColorFactor": [
          0.8117647058823529,
          0.03137254901960784,
          0.4470588235294118,
          1
        ],
        "metallicFactor": 0.5,
        "roughnessFactor": 0.5
      }
    },
    {
      "pbrMetallicRoughness": {
        "baseColorFactor": [
          0.8117647058823529,
          0.03137254901960784,
          0.4470588235294118,
          1
        ],
        "metallicFactor": 0.5,
        "roughnessFactor": 0.5
      }
    },
    {
      "pbrMetallicRoughness": {
        "baseColorFactor": [
          0.8117647058823529,
          0.03137254901960784,
          0.4470588235294118,
          1
        ],
        "metallicFactor": 0.5,
        "roughnessFactor": 0.5
      }
    },
    {
      "pbrMetallicRoughness": {
        "baseColorFactor": [
          0.8117647058823529,
          0.03137254901960784,
          0.4470588235294118,
          1
        ],
        "metallicFactor": 0.5,
        "roughnessFactor": 0.5
      }
    },
    {
      "pbrMetallicRoughness": {
        "baseColorFactor": [
          0.8117647058823529,
          0.03137254901960784,
          0.4470588235294118,
          1
        ],
        "metallicFactor": 0.5,
        "roughnessFactor": 0.5
      }
    },
    {
      "pbrMetallicRoughness": {
        "baseColorFactor": [
          0.8117647058823529,
          0.03137254901960784,
          0.4470588235294118,
          1
        ],
        "metallicFactor": 0.5,
        "roughnessFactor": 0.5
      }
    },
    {
      "pbrMetallicRoughness": {
        "baseColorFactor": [
          0.8117647058823529,
          0.03137254901960784,
          0.4470588235294118,
          1
        ],
        "metallicFactor": 0.5,
        "roughnessFactor": 0.5
      }
    }
  ],
  "meshes": [
    {
      "primitives": [
        {
          "mode": 3,
          "attributes": {
            "POSITION": 0
          },
          "material": 0
        }
      ]
    },
    {
      "primitives": [
        {
          "mode": 3,
          "attributes": {
            "POSITION": 1
          },
          "material": 1
        }
      ]
    },
    {
      "primitives": [
        {
          "mode": 3,
          "attributes": {
            "POSITION": 2
          },
          "material": 2
        }
      ]
    },
    {
      "primitives": [
        {
          "mode": 4,
          "attributes": {
            "POSITION": 3,
            "NORMAL": 4,
            "TEXCOORD_0": 5
          },
          "indices": 6,
          "material": 3
        }
      ]
    },
    {
      "primitives": [
        {
          "mode": 4,
          "attributes": {
            "POSITION": 3,
            "NORMAL": 4,
            "TEXCOORD_0": 5
          },
          "indices": 6,
          "material": 4
        }
      ]
    },
    {
      "primitives": [
        {
          "mode": 4,
          "attributes": {
            "POSITION": 3,
            "NORMAL": 4,
            "TEXCOORD_0": 5
          },
          "indices": 6,
          "material": 5
        }
      ]
    },
    {
      "primitives": [
        {
          "mode": 4,
          "attributes": {
            "POSITION": 3,
            "NORMAL": 4,
            "TEXCOORD_0": 5
          },
          "indices": 6,
          "material": 6
        }
      ]
    },
    {
      "primitives": [
        {
          "mode": 4,
          "attributes": {
            "POSITION": 3,
            "NORMAL": 4,
            "TEXCOORD_0": 5
          },
          "indices": 6,
          "material": 7
        }
      ]
    },
    {
      "primitives": [
        {
          "mode": 4,
          "attributes": {
            "POSITION": 3,
            "NORMAL": 4,
            "TEXCOORD_0": 5
          },
          "indices": 6,
          "material": 8
        }
      ]
    },
    {
      "primitives": [
        {
          "mode": 4,
          "attributes": {
            "POSITION": 3,
            "NORMAL": 4,
            "TEXCOORD_0": 5
          },
          "indices": 6,
          "material": 9
        }
      ]
    },
    {
      "primitives": [
        {
          "mode": 4,
          "attributes": {
            "POSITION": 3,
            "NORMAL": 4,
            "TEXCOORD_0": 5
          },
          "indices": 6,
          "material": 10
        }
      ]
    },
    {
      "primitives": [
        {
          "mode": 4,
          "attributes": {
            "POSITION": 3,
            "NORMAL": 4,
            "TEXCOORD_0": 5
          },
          "indices": 6,
          "material": 11
        }
      ]
    },
    {
      "primitives": [
        {
          "mode": 4,
          "attributes": {
            "POSITION": 3,
            "NORMAL": 4,
            "TEXCOORD_0": 5
          },
          "indices": 6,
          "material": 12
        }
      ]
    },
    {
      "primitives": [
        {
          "mode": 4,
          "attributes": {
            "POSITION": 3,
            "NORMAL": 4,
            "TEXCOORD_0": 5
          },
          "indices": 6,
          "material": 13
        }
      ]
    },
    {
      "primitives": [
        {
          "mode": 4,
          "attributes": {
            "POSITION": 3,
            "NORMAL": 4,
            "TEXCOORD_0": 5
          },
          "indices": 6,
          "material": 14
        }
      ]
    },
    {
      "primitives": [
        {
          "mode": 4,
          "attributes": {
            "POSITION": 3,
            "NORMAL": 4,
            "TEXCOORD_0": 5
          },
          "indices": 6,
          "material": 15
        }
      ]
    },
    {
      "primitives": [
        {
          "mode": 4,
          "attributes": {
            "POSITION": 3,
            "NORMAL": 4,
            "TEXCOORD_0": 5
          },
          "indices": 6,
          "material": 16
        }
      ]
    },
    {
      "primitives": [
        {
          "mode": 4,
          "attributes": {
            "POSITION": 3,
            "NORMAL": 4,
            "TEXCOORD_0": 5
          },
          "indices": 6,
          "material": 17
        }
      ]
    },
    {
      "primitives": [
        {
          "mode": 4,
          "attributes": {
            "POSITION": 3,
            "NORMAL": 4,
            "TEXCOORD_0": 5
          },
          "indices": 6,
          "material": 18
        }
      ]
    }
  ],
  "extensionsUsed": [
    "KHR_lights_punctual"
  ]
}