{
  "asset": {
    "version": "2.0",
    "generator": "THREE.GLTFExporter"
  },
  "scenes": [
    {
      "nodes": [
        0,
        1,
        2,
        3,
        4,
        5,
        6,
        7,
        8,
        9,
        10,
        11,
        12,
        13,
        14,
        15,
        16
      ]
    }
  ],
  "scene": 0,
  "nodes": [
    {
      "matrix": [
        1,
        0,
        0,
        0,
        0,
        0.52999894000318,
        -0.8479983040050879,
        0,
        0,
        0.8479983040050879,
        0.52999894000318,
        0,
        0,
        800,
        499.99999999999994,
        1
      ],
      "camera": 0
    },
    {},
    {
      "matrix": [
        1,
        0,
        0,
        0,
        0,
        1,
        0,
        0,
        0,
        0,
        1,
        0,
        0,
        1500,
        200,
        1
      ],
      "extensions": {
        "KHR_lights_punctual": {
          "light": 0
        }
      }
    },
    {
      "mesh": 0
    },
    {
      "mesh": 1
    },
    {
      "mesh": 2
    },
    {
      "matrix": [
        1,
        0,
        0,
        0,
        0,
        1,
        0,
        0,
        0,
        0,
        1,
        0,
        137.35907387045268,
        543.2998429140602,
        -370.82755055335656,
        1
      ],
      "mesh": 3
    },
    {
      "matrix": [
        1,
        0,
        0,
        0,
        0,
        1,
        0,
        0,
        0,
        0,
        1,
        0,
        -413.0718886523399,
        489.7831645266697,
        -299.5012378069818,
        1
      ],
      "mesh": 4
    },
    {
      "matrix": [
        1,
        0,
        0,
        0,
        0,
        1,
        0,
        0,
        0,
        0,
        1,
        0,
        -23.029575675929777,
        341.3729155597729,
        -362.2623534192858,
        1
      ],
      "mesh": 5
    },
    {
      "matrix": [
        1,
        0,
        0,
        0,
        0,
        1,
        0,
        0,
        0,
        0,
        1,
        0,
        209.56726965030612,
        285.38239878309497,
        2.7648257200201556,
        1
      ],
      "mesh": 6
    },
    {
      "matrix": [
        1,
        0,
        0,
        0,
        0,
        1,
        0,
        0,
        0,
        0,
        1,
        0,
        -46.311947509187746,
        348.1609402090336,
        381.57836001194755,
        1
      ],
      "mesh": 7
    },
    {
      "matrix": [
        1,
        0,
        0,
        0,
        0,
        1,
        0,
        0,
        0,
        0,
        1,
        0,
        479.0685663412082,
        508.78755065297076,
        45.56366694972331,
        1
      ],
      "mesh": 8
    },
    {
      "matrix": [
        1,
        0,
        0,
        0,
        0,
        1,
        0,
        0,
        0,
        0,
        1,
        0,
        -179.40883648498908,
        576.4616353241217,
        -51.68687977836191,
        1
      ],
      "mesh": 9
    },
    {
      "matrix": [
        1,
        0,
        0,
        0,
        0,
        1,
        0,
        0,
        0,
        0,
        1,
        0,
        447.23278130088295,
        28.34906708009988,
        359.1574731796858,
        1
      ],
      "mesh": 10
    },
    {
      "matrix": [
        1,
        0,
        0,
        0,
        0,
        1,
        0,
        0,
        0,
        0,
        1,
        0,
        278.8331584753787,
        271.31927011024464,
        325.42813886189185,
        1
      ],
      "mesh": 11
    },
    {
      "matrix": [
        1,
        0,
        0,
        0,
        0,
        1,
        0,
        0,
        0,
        0,
        1,
        0,
        -267.35305792614076,
        85.89358100202071,
        31.014021776751463,
        1
      ],
      "mesh": 12
    },
    {
      "matrix": [
        1,
        0,
        0,
        0,
        0,
        1,
        0,
        0,
        0,
        0,
        1,
        0,
        -190.2282661281103,
        568.4570735838699,
        101.48745691128875,
        1
      ],
      "mesh": 13
    }
  ],
  "cameras": [
    {
      "type": "perspective",
      "perspective": {
        "aspectRatio": 1.0473506200676437,
        "yfov": 1.3089969389957472,
        "zfar": 10000,
        "znear": 1
      }
    }
  ],
  "extensions": {
    "KHR_lights_punctual": {
      "lights": [
        {
          "color": [
            1,
            1,
            1
          ],
          "intensity": 1.5,
          "type": "spot",
          "spot": {
            "innerConeAngle": 0.6283185307179586,
            "outerConeAngle": 0.6283185307179586
          }
        }
      ]
    }
  },
  "bufferViews": [
    {
      "buffer": 0,
      "byteOffset": 0,
      "byteLength": 12000,
      "target": 34962,
      "byteStride": 12
    },
    {
      "buffer": 0,
      "byteOffset": 12000,
      "byteLength": 12000,
      "target": 34962,
      "byteStride": 12
    },
    {
      "buffer": 0,
      "byteOffset": 24000,
      "byteLength": 12000,
      "target": 34962,
      "byteStride": 12
    },
    {
      "buffer": 0,
      "byteOffset": 36000,
      "byteLength": 50700,
      "target": 34962,
      "byteStride": 12
    },
    {
      "buffer": 0,
      "byteOffset": 86700,
      "byteLength": 50700,
      "target": 34962,
      "byteStride": 12
    },
    {
      "buffer": 0,
      "byteOffset": 137400,
      "byteLength": 33800,
      "target": 34962,
      "byteStride": 8
    },
    {
      "buffer": 0,
      "byteOffset": 171200,
      "byteLength": 48384,
      "target": 34963
    }
  ],
  "buffers": [
    {
      "byteLength": 219584,
      "uri": "data:application/octet-stream;base64,"
    }
  ],
  "accessors": [
    {
      "bufferView": 0,
      "componentType": 5126,
      "count": 1000,
      "max": [
        479.7633056640625,
        605.0319213867188,
        390.607177734375
      ],
      "min": [
        -414.68438720703125,
        22.282371520996094,
        -375.07049560546875
      ],
      "type": "VEC3"
    },
    {
      "bufferView": 1,
      "componentType": 5126,
      "count": 1000,
      "max": [
        479.5312805175781,
        596.25927734375,
        383.6376953125
      ],
      "min": [
        -413.12109375,
        27.431127548217773,
        -374.7254943847656
      ],
      "type": "VEC3"
    },
    {
      "bufferView": 2,
      "componentType": 5126,
      "count": 1000,
      "max": [
        479.3479919433594,
        589.4188232421875,
        388.0895080566406
      ],
      "min": [
        -413.7065124511719,
        6.376020908355713,
        -374.36126708984375
      ],
      "type": "VEC3"
    },
    {
      "bufferView": 3,
      "componentType": 5126,
      "count": 4225,
      "max": [
        5,
        5,
        5
      ],
      "min": [
        -5,
        -5,
        -5
      ],
      "type": "VEC3"
    },
    {
      "bufferView": 4,
      "componentType": 5126,
      "count": 4225,
      "max": [
        1,
        1,
        1
      ],
      "min": [
        -1,
        -1,
        -1
      ],
      "type": "VEC3"
    },
    {
      "bufferView": 5,
      "componentType": 5126,
      "count": 4225,
      "max": [
        1.0078125,
        1
      ],
      "min": [
        -0.0078125,
        0
      ],
      "type": "VEC2"
    },
    {
      "bufferView": 6,
      "componentType": 5123,
      "count": 24192,
      "max": [
        4224
      ],
      "min": [
        0
      ],
      "type": "SCALAR"
    }
  ],
  "materials": [
    {
      "pbrMetallicRoughness": {
        "baseColorFactor": [
          0.20392156862745098,
          0.0196078431372549,
          0.7372549019607844,
          1
        ],
        "metallicFactor": 0.5,
        "roughnessFactor": 0.5
      }
    },
    {
      "pbrMetallicRoughness": {
        "baseColorFactor": [
          0.7333333333333333,
          0.796078431372549,
          0.8784313725490196,
          1
        ],
        "metallicFactor": 0.5,
        "roughnessFactor": 0.5
      }
    },
    {
      "pbrMetallicRoughness": {
        "baseColorFactor": [
          0.1607843137254902,
          0.9882352941176471,
          0.7019607843137254,
          1
        ],
        "metallicFactor": 0.5,
        "roughnessFactor": 0.5
      }
    },
    {
      "pbrMetallicRoughness": {
        "baseColorFactor": [
          0.8901960784313725,
          0.5411764705882353,
          0.6235294117647059,
          1
        ],
        "metallicFactor": 0.5,
        "roughnessFactor": 0.5
      }
    },
    {
      "pbrMetallicRoughness": {
        "baseColorFactor": [
          0.8901960784313725,
          0.5411764705882353,
          0.6235294117647059,
          1
        ],
        "metallicFactor": 0.5,
        "roughnessFactor": 0.5
      }
    },
    {
      "pbrMetallicRoughness": {
        "baseColorFactor": [
          0.8901960784313725,
          0.5411764705882353,
          0.6235294117647059,
          1
        ],
        "metallicFactor": 0.5,
        "roughnessFactor": 0.5
      }
    },
    {
      "pbrMetallicRoughness": {
        "baseColorFactor": [
          0.8901960784313725,
          0.5411764705882353,
          0.6235294117647059,
          1
        ],
        "metallicFactor": 0.5,
        "roughnessFactor": 0.5
      }
    },
    {
      "pbrMetallicRoughness": {
        "baseColorFactor": [
          0.8901960784313725,
          0.5411764705882353,
          0.6235294117647059,
          1
        ],
        "metallicFactor": 0.5,
        "roughnessFactor": 0.5
      }
    },
    {
      "pbrMetallicRoughness": {
        "baseColorFactor": [
          0.8901960784313725,
          0.5411764705882353,
          0.6235294117647059,
          1
        ],
        "metallicFactor": 0.5,
        "roughnessFactor": 0.5
      }
    },
    {
      "pbrMetallicRoughness": {
        "baseColorFactor": [
          0.8901960784313725,
          0.5411764705882353,
          0.6235294117647059,
          1
        ],
        "metallicFactor": 0.5,
        "roughnessFactor": 0.5
      }
    },
    {
      "pbrMetallicRoughness": {
        "baseColorFactor": [
          0.8901960784313725,
          0.5411764705882353,
          0.6235294117647059,
          1
        ],
        "metallicFactor": 0.5,
        "roughnessFactor": 0.5
      }
    },
    {
      "pbrMetallicRoughness": {
        "baseColorFactor": [
          0.8901960784313725,
          0.5411764705882353,
          0.6235294117647059,
          1
        ],
        "metallicFactor": 0.5,
        "roughnessFactor": 0.5
      }
    },
    {
      "pbrMetallicRoughness": {
        "baseColorFactor": [
          0.8901960784313725,
          0.5411764705882353,
          0.6235294117647059,
          1
        ],
        "metallicFactor": 0.5,
        "roughnessFactor": 0.5
      }
    },
    {
      "pbrMetallicRoughness": {
        "baseColorFactor": [
          0.8901960784313725,
          0.5411764705882353,
          0.6235294117647059,
          1
        ],
        "metallicFactor": 0.5,
        "roughnessFactor": 0.5
      }
    }
  ],
  "meshes": [
    {
      "primitives": [
        {
          "mode": 3,
          "attributes": {
            "POSITION": 0
          },
          "material": 0
        }
      ]
    },
    {
      "primitives": [
        {
          "mode": 3,
          "attributes": {
            "POSITION": 1
          },
          "material": 1
        }
      ]
    },
    {
      "primitives": [
        {
          "mode": 3,
          "attributes": {
            "POSITION": 2
          },
          "material": 2
        }
      ]
    },
    {
      "primitives": [
        {
          "mode": 4,
          "attributes": {
            "POSITION": 3,
            "NORMAL": 4,
            "TEXCOORD_0": 5
          },
          "indices": 6,
          "material": 3
        }
      ]
    },
    {
      "primitives": [
        {
          "mode": 4,
          "attributes": {
            "POSITION": 3,
            "NORMAL": 4,
            "TEXCOORD_0": 5
          },
          "indices": 6,
          "material": 4
        }
      ]
    },
    {
      "primitives": [
        {
          "mode": 4,
          "attributes": {
            "POSITION": 3,
            "NORMAL": 4,
            "TEXCOORD_0": 5
          },
          "indices": 6,
          "material": 5
        }
      ]
    },
    {
      "primitives": [
        {
          "mode": 4,
          "attributes": {
            "POSITION": 3,
            "NORMAL": 4,
            "TEXCOORD_0": 5
          },
          "indices": 6,
          "material": 6
        }
      ]
    },
    {
      "primitives": [
        {
          "mode": 4,
          "attributes": {
            "POSITION": 3,
            "NORMAL": 4,
            "TEXCOORD_0": 5
          },
          "indices": 6,
          "material": 7
        }
      ]
    },
    {
      "primitives": [
        {
          "mode": 4,
          "attributes": {
            "POSITION": 3,
            "NORMAL": 4,
            "TEXCOORD_0": 5
          },
          "indices": 6,
          "material": 8
        }
      ]
    },
    {
      "primitives": [
        {
          "mode": 4,
          "attributes": {
            "POSITION": 3,
            "NORMAL": 4,
            "TEXCOORD_0": 5
          },
          "indices": 6,
          "material": 9
        }
      ]
    },
    {
      "primitives": [
        {
          "mode": 4,
          "attributes": {
            "POSITION": 3,
            "NORMAL": 4,
            "TEXCOORD_0": 5
          },
          "indices": 6,
          "material": 10
        }
      ]
    },
    {
      "primitives": [
        {
          "mode": 4,
          "attributes": {
            "POSITION": 3,
            "NORMAL": 4,
            "TEXCOORD_0": 5
          },
          "indices": 6,
          "material": 11
        }
      ]
    },
    {
      "primitives": [
        {
          "mode": 4,
          "attributes": {
            "POSITION": 3,
            "NORMAL": 4,
            "TEXCOORD_0": 5
          },
          "indices": 6,
          "material": 12
        }
      ]
    },
    {
      "primitives": [
        {
          "mode": 4,
          "attributes": {
            "POSITION": 3,
            "NORMAL": 4,
            "TEXCOORD_0": 5
          },
          "indices": 6,
          "material": 13
        }
      ]
    }
  ],
  "extensionsUsed": [
    "KHR_lights_punctual"
  ]
}