{
  "asset": {
    "version": "2.0",
    "generator": "THREE.GLTFExporter"
  },
  "scenes": [
    {
      "nodes": [
        0,
        1,
        2,
        3,
        4,
        5,
        6,
        7,
        8,
        9,
        10,
        11,
        12,
        13,
        14,
        15,
        16,
        17,
        18,
        19,
        20,
        21,
        22,
        23,
        24,
        25,
        26,
        27
      ]
    }
  ],
  "scene": 0,
  "nodes": [
    {
      "matrix": [
        1,
        0,
        0,
        0,
        0,
        0.52999894000318,
        -0.8479983040050879,
        0,
        0,
        0.8479983040050879,
        0.52999894000318,
        0,
        0,
        800,
        499.99999999999994,
        1
      ],
      "camera": 0
    },
    {},
    {
      "matrix": [
        1,
        0,
        0,
        0,
        0,
        1,
        0,
        0,
        0,
        0,
        1,
        0,
        0,
        1500,
        200,
        1
      ],
      "extensions": {
        "KHR_lights_punctual": {
          "light": 0
        }
      }
    },
    {
      "mesh": 0
    },
    {
      "mesh": 1
    },
    {
      "mesh": 2
    },
    {
      "matrix": [
        1,
        0,
        0,
        0,
        0,
        1,
        0,
        0,
        0,
        0,
        1,
        0,
        364.6132479532025,
        564.1449522185972,
        91.23207957788202,
        1
      ],
      "mesh": 3
    },
    {
      "matrix": [
        1,
        0,
        0,
        0,
        0,
        1,
        0,
        0,
        0,
        0,
        1,
        0,
        -371.94052746053944,
        210.4806734787669,
        98.98318300558913,
        1
      ],
      "mesh": 4
    },
    {
      "matrix": [
        1,
        0,
        0,
        0,
        0,
        1,
        0,
        0,
        0,
        0,
        1,
        0,
        3.4820244573776904,
        557.2559258147885,
        270.56186039024203,
        1
      ],
      "mesh": 5
    },
    {
      "matrix": [
        1,
        0,
        0,
        0,
        0,
        1,
        0,
        0,
        0,
        0,
        1,
        0,
        -266.205389940136,
        464.1461463425896,
        -232.54902054723613,
        1
      ],
      "mesh": 6
    },
    {
      "matrix": [
        1,
        0,
        0,
        0,
        0,
        1,
        0,
        0,
        0,
        0,
        1,
        0,
        225.25167178248796,
        73.24681052549882,
        31.819455611387127,
        1
      ],
      "mesh": 7
    },
    {
      "matrix": [
        1,
        0,
        0,
        0,
        0,
        1,
        0,
        0,
        0,
        0,
        1,
        0,
        319.8569585929556,
        593.667403183666,
        21.531168484453303,
        1
      ],
      "mesh": 8
    },
    {
      "matrix": [
        1,
        0,
        0,
        0,
        0,
        1,
        0,
        0,
        0,
        0,
        1,
        0,
        495.003683365538,
        400.9740779568108,
        -2.250369297617283,
        1
      ],
      "mesh": 9
    },
    {
      "matrix": [
        1,
        0,
        0,
        0,
        0,
        1,
        0,
        0,
        0,
        0,
        1,
        0,
        406.474568520238,
        150.0666629182261,
        51.52621880100236,
        1
      ],
      "mesh": 10
    },
    {
      "matrix": [
        1,
        0,
        0,
        0,
        0,
        1,
        0,
        0,
        0,
        0,
        1,
        0,
        302.93700552538644,
        66.65605716178567,
        -143.6310276562944,
        1
      ],
      "mesh": 11
    },
    {
      "matrix": [
        1,
        0,
        0,
        0,
        0,
        1,
        0,
        0,
        0,
        0,
        1,
        0,
        -83.6573379596486,
        216.27996093740046,
        215.5059762833862,
        1
      ],
      "mesh": 12
    },
    {
      "matrix": [
        1,
        0,
        0,
        0,
        0,
        1,
        0,
        0,
        0,
        0,
        1,
        0,
        46.092472803400256,
        25.75347419523353,
        -358.41507446218924,
        1
      ],
      "mesh": 13
    },
    {
      "matrix": [
        1,
        0,
        0,
        0,
        0,
        1,
        0,
        0,
        0,
        0,
        1,
        0,
        298.16710209175574,
        464.1739209298593,
        89.14714711488807,
        1
      ],
      "mesh": 14
    },
    {
      "matrix": [
        1,
        0,
        0,
        0,
        0,
        1,
        0,
        0,
        0,
        0,
        1,
        0,
        -399.25451787601094,
        41.49332241047943,
        283.58276589026605,
        1
      ],
      "mesh": 15
    },
    {
      "matrix": [
        1,
        0,
        0,
        0,
        0,
        1,
        0,
        0,
        0,
        0,
        1,
        0,
        -287.4788461155924,
        357.49469522525607,
        62.93623252398868,
        1
      ],
      "mesh": 16
    },
    {
      "matrix": [
        1,
        0,
        0,
        0,
        0,
        1,
        0,
        0,
        0,
        0,
        1,
        0,
        -95.88897013722118,
        289.1636969756244,
        119.75447917642668,
        1
      ],
      "mesh": 17
    },
    {
      "matrix": [
        1,
        0,
        0,
        0,
        0,
        1,
        0,
        0,
        0,
        0,
        1,
        0,
        -92.73407575981093,
        309.44905555597444,
        210.72980729518633,
        1
      ],
      "mesh": 18
    },
    {
      "matrix": [
        1,
        0,
        0,
        0,
        0,
        1,
        0,
        0,
        0,
        0,
        1,
        0,
        313.4215726428969,
        533.6197708346914,
        -78.51702373284047,
        1
      ],
      "mesh": 19
    },
    {
      "matrix": [
        1,
        0,
        0,
        0,
        0,
        1,
        0,
        0,
        0,
        0,
        1,
        0,
        40.01561368630098,
        408.1738798688561,
        131.85096314432076,
        1
      ],
      "mesh": 20
    },
    {
      "matrix": [
        1,
        0,
        0,
        0,
        0,
        1,
        0,
        0,
        0,
        0,
        1,
        0,
        0.5697278555923049,
        548.10379353363,
        106.43136946049339,
        1
      ],
      "mesh": 21
    },
    {
      "matrix": [
        1,
        0,
        0,
        0,
        0,
        1,
        0,
        0,
        0,
        0,
        1,
        0,
        -160.85759876732175,
        575.0704884730311,
        61.539381832873175,
        1
      ],
      "mesh": 22
    },
    {
      "matrix": [
        1,
        0,
        0,
        0,
        0,
        1,
        0,
        0,
        0,
        0,
        1,
        0,
        266.46332532136216,
        203.09387884160293,
        67.93909340112737,
        1
      ],
      "mesh": 23
    },
    {
      "matrix": [
        1,
        0,
        0,
        0,
        0,
        1,
        0,
        0,
        0,
        0,
        1,
        0,
        -262.5959620100771,
        213.58708878299507,
        -193.92994415454368,
        1
      ],
      "mesh": 24
    }
  ],
  "cameras": [
    {
      "type": "perspective",
      "perspective": {
        "aspectRatio": 1.0473506200676437,
        "yfov": 1.3089969389957472,
        "zfar": 10000,
        "znear": 1
      }
    }
  ],
  "extensions": {
    "KHR_lights_punctual": {
      "lights": [
        {
          "color": [
            1,
            1,
            1
          ],
          "intensity": 1.5,
          "type": "spot",
          "spot": {
            "innerConeAngle": 0.6283185307179586,
            "outerConeAngle": 0.6283185307179586
          }
        }
      ]
    }
  },
  "bufferViews": [
    {
      "buffer": 0,
      "byteOffset": 0,
      "byteLength": 12000,
      "target": 34962,
      "byteStride": 12
    },
    {
      "buffer": 0,
      "byteOffset": 12000,
      "byteLength": 12000,
      "target": 34962,
      "byteStride": 12
    },
    {
      "buffer": 0,
      "byteOffset": 24000,
      "byteLength": 12000,
      "target": 34962,
      "byteStride": 12
    },
    {
      "buffer": 0,
      "byteOffset": 36000,
      "byteLength": 50700,
      "target": 34962,
      "byteStride": 12
    },
    {
      "buffer": 0,
      "byteOffset": 86700,
      "byteLength": 50700,
      "target": 34962,
      "byteStride": 12
    },
    {
      "buffer": 0,
      "byteOffset": 137400,
      "byteLength": 33800,
      "target": 34962,
      "byteStride": 8
    },
    {
      "buffer": 0,
      "byteOffset": 171200,
      "byteLength": 48384,
      "target": 34963
    }
  ],
  "buffers": [
    {
      "byteLength": 219584,
      "uri": "data:application/octet-stream;base64,"
    }
  ],
  "accessors": [
    {
      "bufferView": 0,
      "componentType": 5126,
      "count": 1000,
      "max": [
        496.91021728515625,
        604.1266479492188,
        283.7257080078125
      ],
      "min": [
        -430.3228454589844,
        20.716285705566406,
        -359.2966003417969
      ],
      "type": "VEC3"
    },
    {
      "bufferView": 1,
      "componentType": 5126,
      "count": 1000,
      "max": [
        497.1724853515625,
        594.5108032226562,
        290.50048828125
      ],
      "min": [
        -410.8851013183594,
        21.84239959716797,
        -359.9280090332031
      ],
      "type": "VEC3"
    },
    {
      "bufferView": 2,
      "componentType": 5126,
      "count": 1000,
      "max": [
        497.4442138671875,
        594.7850952148438,
        307.82855224609375
      ],
      "min": [
        -401.34765625,
        22.85092544555664,
        -361.039794921875
      ],
      "type": "VEC3"
    },
    {
      "bufferView": 3,
      "componentType": 5126,
      "count": 4225,
      "max": [
        5,
        5,
        5
      ],
      "min": [
        -5,
        -5,
        -5
      ],
      "type": "VEC3"
    },
    {
      "bufferView": 4,
      "componentType": 5126,
      "count": 4225,
      "max": [
        1,
        1,
        1
      ],
      "min": [
        -1,
        -1,
        -1
      ],
      "type": "VEC3"
    },
    {
      "bufferView": 5,
      "componentType": 5126,
      "count": 4225,
      "max": [
        1.0078125,
        1
      ],
      "min": [
        -0.0078125,
        0
      ],
      "type": "VEC2"
    },
    {
      "bufferView": 6,
      "componentType": 5123,
      "count": 24192,
      "max": [
        4224
      ],
      "min": [
        0
      ],
      "type": "SCALAR"
    }
  ],
  "materials": [
    {
      "pbrMetallicRoughness": {
        "baseColorFactor": [
          0.6509803921568628,
          0.611764705882353,
          0.16470588235294117,
          1
        ],
        "metallicFactor": 0.5,
        "roughnessFactor": 0.5
      }
    },
    {
      "pbrMetallicRoughness": {
        "baseColorFactor": [
          0.615686274509804,
          0.16470588235294117,
          0.8705882352941177,
          1
        ],
        "metallicFactor": 0.5,
        "roughnessFactor": 0.5
      }
    },
    {
      "pbrMetallicRoughness": {
        "baseColorFactor": [
          0.9529411764705882,
          0.8274509803921568,
          0.4549019607843137,
          1
        ],
        "metallicFactor": 0.5,
        "roughnessFactor": 0.5
      }
    },
    {
      "pbrMetallicRoughness": {
        "baseColorFactor": [
          0.9411764705882353,
          0.08235294117647059,
          0.6313725490196078,
          1
        ],
        "metallicFactor": 0.5,
        "roughnessFactor": 0.5
      }
    },
    {
      "pbrMetallicRoughness": {
        "baseColorFactor": [
          0.9411764705882353,
          0.08235294117647059,
          0.6313725490196078,
          1
        ],
        "metallicFactor": 0.5,
        "roughnessFactor": 0.5
      }
    },
    {
      "pbrMetallicRoughness": {
        "baseColorFactor": [
          0.9411764705882353,
          0.08235294117647059,
          0.6313725490196078,
          1
        ],
        "metallicFactor": 0.5,
        "roughnessFactor": 0.5
      }
    },
    {
      "pbrMetallicRoughness": {
        "baseColorFactor": [
          0.9411764705882353,
          0.08235294117647059,
          0.6313725490196078,
          1
        ],
        "metallicFactor": 0.5,
        "roughnessFactor": 0.5
      }
    },
    {
      "pbrMetallicRoughness": {
        "baseColorFactor": [
          0.9411764705882353,
          0.08235294117647059,
          0.6313725490196078,
          1
        ],
        "metallicFactor": 0.5,
        "roughnessFactor": 0.5
      }
    },
    {
      "pbrMetallicRoughness": {
        "baseColorFactor": [
          0.9411764705882353,
          0.08235294117647059,
          0.6313725490196078,
          1
        ],
        "metallicFactor": 0.5,
        "roughnessFactor": 0.5
      }
    },
    {
      "pbrMetallicRoughness": {
        "baseColorFactor": [
          0.9411764705882353,
          0.08235294117647059,
          0.6313725490196078,
          1
        ],
        "metallicFactor": 0.5,
        "roughnessFactor": 0.5
      }
    },
    {
      "pbrMetallicRoughness": {
        "baseColorFactor": [
          0.9411764705882353,
          0.08235294117647059,
          0.6313725490196078,
          1
        ],
        "metallicFactor": 0.5,
        "roughnessFactor": 0.5
      }
    },
    {
      "pbrMetallicRoughness": {
        "baseColorFactor": [
          0.9411764705882353,
          0.08235294117647059,
          0.6313725490196078,
          1
        ],
        "metallicFactor": 0.5,
        "roughnessFactor": 0.5
      }
    },
    {
      "pbrMetallicRoughness": {
        "baseColorFactor": [
          0.9411764705882353,
          0.08235294117647059,
          0.6313725490196078,
          1
        ],
        "metallicFactor": 0.5,
        "roughnessFactor": 0.5
      }
    },
    {
      "pbrMetallicRoughness": {
        "baseColorFactor": [
          0.9411764705882353,
          0.08235294117647059,
          0.6313725490196078,
          1
        ],
        "metallicFactor": 0.5,
        "roughnessFactor": 0.5
      }
    },
    {
      "pbrMetallicRoughness": {
        "baseColorFactor": [
          0.9411764705882353,
          0.08235294117647059,
          0.6313725490196078,
          1
        ],
        "metallicFactor": 0.5,
        "roughnessFactor": 0.5
      }
    },
    {
      "pbrMetallicRoughness": {
        "baseColorFactor": [
          0.9411764705882353,
          0.08235294117647059,
          0.6313725490196078,
          1
        ],
        "metallicFactor": 0.5,
        "roughnessFactor": 0.5
      }
    },
    {
      "pbrMetallicRoughness": {
        "baseColorFactor": [
          0.9411764705882353,
          0.08235294117647059,
          0.6313725490196078,
          1
        ],
        "metallicFactor": 0.5,
        "roughnessFactor": 0.5
      }
    },
    {
      "pbrMetallicRoughness": {
        "baseColorFactor": [
          0.9411764705882353,
          0.08235294117647059,
          0.6313725490196078,
          1
        ],
        "metallicFactor": 0.5,
        "roughnessFactor": 0.5
      }
    },
    {
      "pbrMetallicRoughness": {
        "baseColorFactor": [
          0.9411764705882353,
          0.08235294117647059,
          0.6313725490196078,
          1
        ],
        "metallicFactor": 0.5,
        "roughnessFactor": 0.5
      }
    },
    {
      "pbrMetallicRoughness": {
        "baseColorFactor": [
          0.9411764705882353,
          0.08235294117647059,
          0.6313725490196078,
          1
        ],
        "metallicFactor": 0.5,
        "roughnessFactor": 0.5
      }
    },
    {
      "pbrMetallicRoughness": {
        "baseColorFactor": [
          0.9411764705882353,
          0.08235294117647059,
          0.6313725490196078,
          1
        ],
        "metallicFactor": 0.5,
        "roughnessFactor": 0.5
      }
    },
    {
      "pbrMetallicRoughness": {
        "baseColorFactor": [
          0.9411764705882353,
          0.08235294117647059,
          0.6313725490196078,
          1
        ],
        "metallicFactor": 0.5,
        "roughnessFactor": 0.5
      }
    },
    {
      "pbrMetallicRoughness": {
        "baseColorFactor": [
          0.9411764705882353,
          0.08235294117647059,
          0.6313725490196078,
          1
        ],
        "metallicFactor": 0.5,
        "roughnessFactor": 0.5
      }
    },
    {
      "pbrMetallicRoughness": {
        "baseColorFactor": [
          0.9411764705882353,
          0.08235294117647059,
          0.6313725490196078,
          1
        ],
        "metallicFactor": 0.5,
        "roughnessFactor": 0.5
      }
    },
    {
      "pbrMetallicRoughness": {
        "baseColorFactor": [
          0.9411764705882353,
          0.08235294117647059,
          0.6313725490196078,
          1
        ],
        "metallicFactor": 0.5,
        "roughnessFactor": 0.5
      }
    }
  ],
  "meshes": [
    {
      "primitives": [
        {
          "mode": 3,
          "attributes": {
            "POSITION": 0
          },
          "material": 0
        }
      ]
    },
    {
      "primitives": [
        {
          "mode": 3,
          "attributes": {
            "POSITION": 1
          },
          "material": 1
        }
      ]
    },
    {
      "primitives": [
        {
          "mode": 3,
          "attributes": {
            "POSITION": 2
          },
          "material": 2
        }
      ]
    },
    {
      "primitives": [
        {
          "mode": 4,
          "attributes": {
            "POSITION": 3,
            "NORMAL": 4,
            "TEXCOORD_0": 5
          },
          "indices": 6,
          "material": 3
        }
      ]
    },
    {
      "primitives": [
        {
          "mode": 4,
          "attributes": {
            "POSITION": 3,
            "NORMAL": 4,
            "TEXCOORD_0": 5
          },
          "indices": 6,
          "material": 4
        }
      ]
    },
    {
      "primitives": [
        {
          "mode": 4,
          "attributes": {
            "POSITION": 3,
            "NORMAL": 4,
            "TEXCOORD_0": 5
          },
          "indices": 6,
          "material": 5
        }
      ]
    },
    {
      "primitives": [
        {
          "mode": 4,
          "attributes": {
            "POSITION": 3,
            "NORMAL": 4,
            "TEXCOORD_0": 5
          },
          "indices": 6,
          "material": 6
        }
      ]
    },
    {
      "primitives": [
        {
          "mode": 4,
          "attributes": {
            "POSITION": 3,
            "NORMAL": 4,
            "TEXCOORD_0": 5
          },
          "indices": 6,
          "material": 7
        }
      ]
    },
    {
      "primitives": [
        {
          "mode": 4,
          "attributes": {
            "POSITION": 3,
            "NORMAL": 4,
            "TEXCOORD_0": 5
          },
          "indices": 6,
          "material": 8
        }
      ]
    },
    {
      "primitives": [
        {
          "mode": 4,
          "attributes": {
            "POSITION": 3,
            "NORMAL": 4,
            "TEXCOORD_0": 5
          },
          "indices": 6,
          "material": 9
        }
      ]
    },
    {
      "primitives": [
        {
          "mode": 4,
          "attributes": {
            "POSITION": 3,
            "NORMAL": 4,
            "TEXCOORD_0": 5
          },
          "indices": 6,
          "material": 10
        }
      ]
    },
    {
      "primitives": [
        {
          "mode": 4,
          "attributes": {
            "POSITION": 3,
            "NORMAL": 4,
            "TEXCOORD_0": 5
          },
          "indices": 6,
          "material": 11
        }
      ]
    },
    {
      "primitives": [
        {
          "mode": 4,
          "attributes": {
            "POSITION": 3,
            "NORMAL": 4,
            "TEXCOORD_0": 5
          },
          "indices": 6,
          "material": 12
        }
      ]
    },
    {
      "primitives": [
        {
          "mode": 4,
          "attributes": {
            "POSITION": 3,
            "NORMAL": 4,
            "TEXCOORD_0": 5
          },
          "indices": 6,
          "material": 13
        }
      ]
    },
    {
      "primitives": [
        {
          "mode": 4,
          "attributes": {
            "POSITION": 3,
            "NORMAL": 4,
            "TEXCOORD_0": 5
          },
          "indices": 6,
          "material": 14
        }
      ]
    },
    {
      "primitives": [
        {
          "mode": 4,
          "attributes": {
            "POSITION": 3,
            "NORMAL": 4,
            "TEXCOORD_0": 5
          },
          "indices": 6,
          "material": 15
        }
      ]
    },
    {
      "primitives": [
        {
          "mode": 4,
          "attributes": {
            "POSITION": 3,
            "NORMAL": 4,
            "TEXCOORD_0": 5
          },
          "indices": 6,
          "material": 16
        }
      ]
    },
    {
      "primitives": [
        {
          "mode": 4,
          "attributes": {
            "POSITION": 3,
            "NORMAL": 4,
            "TEXCOORD_0": 5
          },
          "indices": 6,
          "material": 17
        }
      ]
    },
    {
      "primitives": [
        {
          "mode": 4,
          "attributes": {
            "POSITION": 3,
            "NORMAL": 4,
            "TEXCOORD_0": 5
          },
          "indices": 6,
          "material": 18
        }
      ]
    },
    {
      "primitives": [
        {
          "mode": 4,
          "attributes": {
            "POSITION": 3,
            "NORMAL": 4,
            "TEXCOORD_0": 5
          },
          "indices": 6,
          "material": 19
        }
      ]
    },
    {
      "primitives": [
        {
          "mode": 4,
          "attributes": {
            "POSITION": 3,
            "NORMAL": 4,
            "TEXCOORD_0": 5
          },
          "indices": 6,
          "material": 20
        }
      ]
    },
    {
      "primitives": [
        {
          "mode": 4,
          "attributes": {
            "POSITION": 3,
            "NORMAL": 4,
            "TEXCOORD_0": 5
          },
          "indices": 6,
          "material": 21
        }
      ]
    },
    {
      "primitives": [
        {
          "mode": 4,
          "attributes": {
            "POSITION": 3,
            "NORMAL": 4,
            "TEXCOORD_0": 5
          },
          "indices": 6,
          "material": 22
        }
      ]
    },
    {
      "primitives": [
        {
          "mode": 4,
          "attributes": {
            "POSITION": 3,
            "NORMAL": 4,
            "TEXCOORD_0": 5
          },
          "indices": 6,
          "material": 23
        }
      ]
    },
    {
      "primitives": [
        {
          "mode": 4,
          "attributes": {
            "POSITION": 3,
            "NORMAL": 4,
            "TEXCOORD_0": 5
          },
          "indices": 6,
          "material": 24
        }
      ]
    }
  ],
  "extensionsUsed": [
    "KHR_lights_punctual"
  ]
}