{
  "asset": {
    "version": "2.0",
    "generator": "THREE.GLTFExporter"
  },
  "scenes": [
    {
      "nodes": [
        0,
        1,
        2,
        3,
        4,
        5,
        6,
        7,
        8,
        9,
        10,
        11,
        12,
        13
      ]
    }
  ],
  "scene": 0,
  "nodes": [
    {
      "matrix": [
        1,
        0,
        0,
        0,
        0,
        0.52999894000318,
        -0.8479983040050879,
        0,
        0,
        0.8479983040050879,
        0.52999894000318,
        0,
        0,
        800,
        499.99999999999994,
        1
      ],
      "camera": 0
    },
    {},
    {
      "matrix": [
        1,
        0,
        0,
        0,
        0,
        1,
        0,
        0,
        0,
        0,
        1,
        0,
        0,
        1500,
        200,
        1
      ],
      "extensions": {
        "KHR_lights_punctual": {
          "light": 0
        }
      }
    },
    {
      "mesh": 0
    },
    {
      "mesh": 1
    },
    {
      "mesh": 2
    },
    {
      "matrix": [
        1,
        0,
        0,
        0,
        0,
        1,
        0,
        0,
        0,
        0,
        1,
        0,
        -278.4823534037406,
        470.41049849114404,
        399.27034965438486,
        1
      ],
      "mesh": 3
    },
    {
      "matrix": [
        1,
        0,
        0,
        0,
        0,
        1,
        0,
        0,
        0,
        0,
        1,
        0,
        285.6173244376914,
        308.9352103276331,
        -388.0954470036343,
        1
      ],
      "mesh": 4
    },
    {
      "matrix": [
        1,
        0,
        0,
        0,
        0,
        1,
        0,
        0,
        0,
        0,
        1,
        0,
        216.84179609388445,
        137.7728646457295,
        -79.75951016293072,
        1
      ],
      "mesh": 5
    },
    {
      "matrix": [
        1,
        0,
        0,
        0,
        0,
        1,
        0,
        0,
        0,
        0,
        1,
        0,
        355.5001759590781,
        493.71214225404526,
        -34.87773036711593,
        1
      ],
      "mesh": 6
    },
    {
      "matrix": [
        1,
        0,
        0,
        0,
        0,
        1,
        0,
        0,
        0,
        0,
        1,
        0,
        486.8200645893819,
        430.42385374658136,
        43.579271051339674,
        1
      ],
      "mesh": 7
    },
    {
      "matrix": [
        1,
        0,
        0,
        0,
        0,
        1,
        0,
        0,
        0,
        0,
        1,
        0,
        186.32179114733094,
        415.18233748645423,
        354.1863380943014,
        1
      ],
      "mesh": 8
    },
    {
      "matrix": [
        1,
        0,
        0,
        0,
        0,
        1,
        0,
        0,
        0,
        0,
        1,
        0,
        -220.81037933702305,
        499.5876687527604,
        -327.9580573124395,
        1
      ],
      "mesh": 9
    },
    {
      "matrix": [
        1,
        0,
        0,
        0,
        0,
        1,
        0,
        0,
        0,
        0,
        1,
        0,
        222.16110472368507,
        134.84486793883025,
        396.51026481816893,
        1
      ],
      "mesh": 10
    }
  ],
  "cameras": [
    {
      "type": "perspective",
      "perspective": {
        "aspectRatio": 1.0473506200676437,
        "yfov": 1.3089969389957472,
        "zfar": 10000,
        "znear": 1
      }
    }
  ],
  "extensions": {
    "KHR_lights_punctual": {
      "lights": [
        {
          "color": [
            1,
            1,
            1
          ],
          "intensity": 1.5,
          "type": "spot",
          "spot": {
            "innerConeAngle": 0.6283185307179586,
            "outerConeAngle": 0.6283185307179586
          }
        }
      ]
    }
  },
  "bufferViews": [
    {
      "buffer": 0,
      "byteOffset": 0,
      "byteLength": 12000,
      "target": 34962,
      "byteStride": 12
    },
    {
      "buffer": 0,
      "byteOffset": 12000,
      "byteLength": 12000,
      "target": 34962,
      "byteStride": 12
    },
    {
      "buffer": 0,
      "byteOffset": 24000,
      "byteLength": 12000,
      "target": 34962,
      "byteStride": 12
    },
    {
      "buffer": 0,
      "byteOffset": 36000,
      "byteLength": 50700,
      "target": 34962,
      "byteStride": 12
    },
    {
      "buffer": 0,
      "byteOffset": 86700,
      "byteLength": 50700,
      "target": 34962,
      "byteStride": 12
    },
    {
      "buffer": 0,
      "byteOffset": 137400,
      "byteLength": 33800,
      "target": 34962,
      "byteStride": 8
    },
    {
      "buffer": 0,
      "byteOffset": 171200,
      "byteLength": 48384,
      "target": 34963
    }
  ],
  "buffers": [
    {
      "byteLength": 219584,
      "uri": "data:application/octet-stream;base64,"
    }
  ],
  "accessors": [
    {
      "bufferView": 0,
      "componentType": 5126,
      "count": 1000,
      "max": [
        491.2254638671875,
        510.3662414550781,
        399.2703552246094
      ],
      "min": [
        -278.48236083984375,
        133.5657501220703,
        -400.50323486328125
      ],
      "type": "VEC3"
    },
    {
      "bufferView": 1,
      "componentType": 5126,
      "count": 1000,
      "max": [
        486.92236328125,
        507.8851013183594,
        399.2703552246094
      ],
      "min": [
        -278.48236083984375,
        134.48353576660156,
        -388.15936279296875
      ],
      "type": "VEC3"
    },
    {
      "bufferView": 2,
      "componentType": 5126,
      "count": 1000,
      "max": [
        494.2574157714844,
        505.7767639160156,
        399.2703552246094
      ],
      "min": [
        -278.48236083984375,
        134.84486389160156,
        -406.1665344238281
      ],
      "type": "VEC3"
    },
    {
      "bufferView": 3,
      "componentType": 5126,
      "count": 4225,
      "max": [
        5,
        5,
        5
      ],
      "min": [
        -5,
        -5,
        -5
      ],
      "type": "VEC3"
    },
    {
      "bufferView": 4,
      "componentType": 5126,
      "count": 4225,
      "max": [
        1,
        1,
        1
      ],
      "min": [
        -1,
        -1,
        -1
      ],
      "type": "VEC3"
    },
    {
      "bufferView": 5,
      "componentType": 5126,
      "count": 4225,
      "max": [
        1.0078125,
        1
      ],
      "min": [
        -0.0078125,
        0
      ],
      "type": "VEC2"
    },
    {
      "bufferView": 6,
      "componentType": 5123,
      "count": 24192,
      "max": [
        4224
      ],
      "min": [
        0
      ],
      "type": "SCALAR"
    }
  ],
  "materials": [
    {
      "pbrMetallicRoughness": {
        "baseColorFactor": [
          0.611764705882353,
          0.4470588235294118,
          0.9254901960784314,
          1
        ],
        "metallicFactor": 0.5,
        "roughnessFactor": 0.5
      }
    },
    {
      "pbrMetallicRoughness": {
        "baseColorFactor": [
          0.9725490196078431,
          0.03529411764705882,
          0.0196078431372549,
          1
        ],
        "metallicFactor": 0.5,
        "roughnessFactor": 0.5
      }
    },
    {
      "pbrMetallicRoughness": {
        "baseColorFactor": [
          0.8235294117647058,
          0.4745098039215686,
          0.9098039215686274,
          1
        ],
        "metallicFactor": 0.5,
        "roughnessFactor": 0.5
      }
    },
    {
      "pbrMetallicRoughness": {
        "baseColorFactor": [
          0.7058823529411765,
          0.19607843137254902,
          0.24705882352941178,
          1
        ],
        "metallicFactor": 0.5,
        "roughnessFactor": 0.5
      }
    },
    {
      "pbrMetallicRoughness": {
        "baseColorFactor": [
          0.7058823529411765,
          0.19607843137254902,
          0.24705882352941178,
          1
        ],
        "metallicFactor": 0.5,
        "roughnessFactor": 0.5
      }
    },
    {
      "pbrMetallicRoughness": {
        "baseColorFactor": [
          0.7058823529411765,
          0.19607843137254902,
          0.24705882352941178,
          1
        ],
        "metallicFactor": 0.5,
        "roughnessFactor": 0.5
      }
    },
    {
      "pbrMetallicRoughness": {
        "baseColorFactor": [
          0.7058823529411765,
          0.19607843137254902,
          0.24705882352941178,
          1
        ],
        "metallicFactor": 0.5,
        "roughnessFactor": 0.5
      }
    },
    {
      "pbrMetallicRoughness": {
        "baseColorFactor": [
          0.7058823529411765,
          0.19607843137254902,
          0.24705882352941178,
          1
        ],
        "metallicFactor": 0.5,
        "roughnessFactor": 0.5
      }
    },
    {
      "pbrMetallicRoughness": {
        "baseColorFactor": [
          0.7058823529411765,
          0.19607843137254902,
          0.24705882352941178,
          1
        ],
        "metallicFactor": 0.5,
        "roughnessFactor": 0.5
      }
    },
    {
      "pbrMetallicRoughness": {
        "baseColorFactor": [
          0.7058823529411765,
          0.19607843137254902,
          0.24705882352941178,
          1
        ],
        "metallicFactor": 0.5,
        "roughnessFactor": 0.5
      }
    },
    {
      "pbrMetallicRoughness": {
        "baseColorFactor": [
          0.7058823529411765,
          0.19607843137254902,
          0.24705882352941178,
          1
        ],
        "metallicFactor": 0.5,
        "roughnessFactor": 0.5
      }
    }
  ],
  "meshes": [
    {
      "primitives": [
        {
          "mode": 3,
          "attributes": {
            "POSITION": 0
          },
          "material": 0
        }
      ]
    },
    {
      "primitives": [
        {
          "mode": 3,
          "attributes": {
            "POSITION": 1
          },
          "material": 1
        }
      ]
    },
    {
      "primitives": [
        {
          "mode": 3,
          "attributes": {
            "POSITION": 2
          },
          "material": 2
        }
      ]
    },
    {
      "primitives": [
        {
          "mode": 4,
          "attributes": {
            "POSITION": 3,
            "NORMAL": 4,
            "TEXCOORD_0": 5
          },
          "indices": 6,
          "material": 3
        }
      ]
    },
    {
      "primitives": [
        {
          "mode": 4,
          "attributes": {
            "POSITION": 3,
            "NORMAL": 4,
            "TEXCOORD_0": 5
          },
          "indices": 6,
          "material": 4
        }
      ]
    },
    {
      "primitives": [
        {
          "mode": 4,
          "attributes": {
            "POSITION": 3,
            "NORMAL": 4,
            "TEXCOORD_0": 5
          },
          "indices": 6,
          "material": 5
        }
      ]
    },
    {
      "primitives": [
        {
          "mode": 4,
          "attributes": {
            "POSITION": 3,
            "NORMAL": 4,
            "TEXCOORD_0": 5
          },
          "indices": 6,
          "material": 6
        }
      ]
    },
    {
      "primitives": [
        {
          "mode": 4,
          "attributes": {
            "POSITION": 3,
            "NORMAL": 4,
            "TEXCOORD_0": 5
          },
          "indices": 6,
          "material": 7
        }
      ]
    },
    {
      "primitives": [
        {
          "mode": 4,
          "attributes": {
            "POSITION": 3,
            "NORMAL": 4,
            "TEXCOORD_0": 5
          },
          "indices": 6,
          "material": 8
        }
      ]
    },
    {
      "primitives": [
        {
          "mode": 4,
          "attributes": {
            "POSITION": 3,
            "NORMAL": 4,
            "TEXCOORD_0": 5
          },
          "indices": 6,
          "material": 9
        }
      ]
    },
    {
      "primitives": [
        {
          "mode": 4,
          "attributes": {
            "POSITION": 3,
            "NORMAL": 4,
            "TEXCOORD_0": 5
          },
          "indices": 6,
          "material": 10
        }
      ]
    }
  ],
  "extensionsUsed": [
    "KHR_lights_punctual"
  ]
}